<svg t="1622979726309" class="icon" viewBox="0 0 1024 1024" version="1.1" xmlns="http://www.w3.org/2000/svg" p-id="1404" width="200" height="200"><path d="M566.125714 250.63619c-28.281905-104.350476-114.102857-180.419048-216.015238-180.419047-124.342857 0-225.28 114.102857-225.28 254.537143 0 125.318095 80.457143 229.668571 186.270476 250.63619l-23.893333 23.405714c-16.579048 16.091429-16.579048 42.910476-0.487619 59.489524l0.487619 0.487619c12.678095 12.678095 31.695238 15.60381 47.299048 8.777143-3.900952 19.992381 0.975238 41.447619 15.11619 63.390476 23.893333 37.546667 39.009524 64.853333 35.108572 96.548572-4.388571 33.645714-31.695238 72.655238-88.259048 125.318095-2.438095 2.438095-2.438095 6.339048-0.487619 8.777143 1.462857 1.462857 2.925714 1.950476 4.388571 1.950476 1.462857 0 2.925714-0.487619 4.388572-1.462857 123.367619-114.590476 103.862857-160.426667 55.100952-237.470476-13.165714-20.967619-17.066667-40.472381-12.190476-58.514286 0.487619-0.975238 0.975238-2.438095 0.975238-3.413333 16.579048 12.678095 40.472381 11.702857 56.076191-3.413334 16.579048-16.091429 16.579048-42.910476 0.487619-59.489523l-0.487619-0.487619-1.950477-1.950477-3.413333-3.413333-4.87619-4.87619-12.190477-12.190477c46.811429-7.314286 88.746667-31.207619 121.904762-65.828571-10.24-26.331429-16.091429-55.588571-16.091428-86.308572 0-71.68 30.72-134.582857 78.019047-174.08zM445.19619 154.575238c-1.462857 1.950476-3.900952 2.925714-6.339047 2.925714-1.950476 0-3.900952-0.487619-5.36381-1.950476-1.950476-1.950476-4.388571-3.900952-6.826666-5.851428-3.413333-2.925714-3.900952-8.289524-0.975238-11.702858 2.925714-3.413333 8.289524-3.900952 11.702857-0.975238l7.314285 5.851429c3.413333 2.925714 3.413333 8.289524 0.487619 11.702857z m13.165715 13.165714c3.413333-2.925714 8.777143-2.438095 11.702857 0.975238 21.942857 26.331429 39.009524 56.56381 49.737143 90.209524 1.462857 4.388571-0.975238 9.264762-5.36381 10.727619-0.975238 0.487619-1.950476 0.487619-2.438095 0.487619-3.413333 0-6.826667-2.438095-7.801905-5.851428-10.24-31.695238-25.84381-60.464762-46.811428-84.845714-2.925714-3.413333-2.438095-8.777143 0.975238-11.702858z" fill="#C84D59" p-id="1405" data-spm-anchor-id="a313x.7781069.0.i4" class="selected"></path><path d="M885.028571 429.592381c0-118.491429-85.333333-215.04-190.171428-215.04s-190.171429 96.060952-190.171429 215.04c0 105.813333 67.779048 194.072381 157.013334 211.626667l-19.992381 19.992381c-14.140952 13.653333-14.140952 36.08381-0.487619 50.224761l0.487619 0.48762c10.727619 10.727619 26.819048 13.165714 39.984762 7.314285-3.413333 17.066667 0.975238 34.620952 12.678095 53.150476 19.992381 31.695238 32.670476 54.613333 29.257143 81.432381-3.413333 28.769524-26.331429 61.44-74.605715 105.813334-1.950476 1.950476-2.438095 5.36381-0.487619 7.314285 0.975238 0.975238 2.438095 1.462857 3.900953 1.462858 1.462857 0 2.438095-0.487619 3.413333-1.462858 103.862857-97.03619 87.771429-135.558095 46.811429-200.411428-11.215238-17.554286-14.628571-34.133333-10.24-49.249524 0.487619-0.975238 0.487619-1.950476 0.975238-2.925714 14.140952 10.727619 34.133333 9.752381 47.299047-2.925715 14.140952-13.653333 14.140952-36.08381 0.487619-50.224761l-0.487619-0.487619-1.462857-1.462858-2.925714-2.925714-4.388572-4.388571-10.24-10.24c92.647619-14.140952 163.352381-103.862857 163.352381-212.114286z m-110.201904-143.36c-1.462857 1.462857-3.413333 2.438095-5.36381 2.438095-1.462857 0-3.413333-0.487619-4.87619-1.950476-1.950476-1.462857-3.900952-3.413333-5.36381-4.87619-2.925714-2.438095-3.413333-6.826667-0.975238-9.752381 2.438095-2.925714 6.826667-3.413333 9.752381-0.975239 1.950476 1.462857 3.900952 3.413333 5.851429 4.876191 3.413333 2.925714 3.900952 7.314286 0.975238 10.24z m11.215238 11.215238c2.925714-2.438095 7.314286-1.950476 9.752381 0.975238 18.529524 21.942857 32.670476 47.786667 41.935238 76.556191 0.975238 3.900952-0.975238 7.801905-4.388572 8.777142-0.487619 0-1.462857 0.487619-1.950476 0.48762-2.925714 0-5.851429-1.950476-6.826666-4.876191-8.777143-26.819048-21.942857-50.712381-39.497143-71.68-2.438095-3.413333-1.950476-7.801905 0.975238-10.24z" fill="#0B3D6C" p-id="1406" data-spm-anchor-id="a313x.7781069.0.i3" class="selected"></path></svg>